<svg width="32" height="32" viewBox="0 0 32 32" fill="none" xmlns="http://www.w3.org/2000/svg">
<path d="M24.9623 4.67421C17.1312 -4.75568 15.4548 2.66533 14.5208 4.67421C11.4342 2.75432 8.48939 5.13461 6.26522 8.64997C4.56864 11.3315 3.29137 14.6734 2.69032 17.271C-4.20681 23.0377 4.19907 25.5901 5.34859 25.5901C6.42626 28.1426 9.65929 27.1972 10.6891 26.9373C8.29424 33.5311 14.5208 32.5385 18.5681 30.3405C26.2316 31.1204 26.0647 25.6527 27.884 25.6374C33.4879 25.5901 32.3145 20.3671 30.4944 18.4527C29.6562 12.2134 29.0096 10.6299 24.9623 4.67421Z" fill="#83BD0F"/>
<path d="M11.9502 8.39C9.69909 10.6825 6.89713 9.55593 6.01104 9.33535C7.2803 6.61746 10.8965 2.41064 14.4409 4.75039C15.303 2.90696 17.5063 -4.77404 24.9542 4.75039C25.3374 5.43105 25.7924 5.88481 25.7924 6.12115C23.3497 8.15366 21.0267 7.58645 19.494 6.97197C16.5244 11.3206 13.8901 9.78439 11.9502 8.39Z" fill="#81BA0F"/>
<path fill-rule="evenodd" clip-rule="evenodd" d="M13.3221 12.0729C14.9526 11.8671 16.4817 13.2991 16.7373 15.2715C16.993 17.2438 15.8784 19.0096 14.2479 19.2154C12.6873 19.4124 11.2197 18.1089 10.8726 16.2673C11.3906 16.1571 12.6261 15.8467 12.965 15.6928C13.3813 15.5037 13.4594 15.3619 13.3554 15.291C12.911 14.9937 11.6469 14.7154 10.8854 14.5935C11.1684 13.257 12.1005 12.2271 13.3221 12.0729ZM14.2874 12.985C13.917 12.985 13.6168 13.2813 13.6168 13.6467C13.6168 14.0122 13.917 14.3085 14.2874 14.3085C14.6577 14.3085 14.9579 14.0122 14.9579 13.6467C14.9579 13.2813 14.6577 12.985 14.2874 12.985Z" fill="#0D0D0D"/>
<path fill-rule="evenodd" clip-rule="evenodd" d="M21.1772 11.1748C22.8077 10.969 24.3367 12.4011 24.5924 14.3734C24.848 16.3457 23.7334 18.1115 22.1029 18.3173C20.5423 18.5143 19.0747 17.2108 18.7276 15.3693C19.2457 15.2591 20.4811 14.9486 20.8201 14.7947C21.2364 14.6057 21.3145 14.4639 21.2104 14.393C20.7661 14.0956 19.5019 13.8173 18.7404 13.6954C19.0235 12.359 19.9555 11.329 21.1772 11.1748ZM22.1424 12.0869C21.7721 12.0869 21.4719 12.3832 21.4719 12.7486C21.4719 13.1141 21.7721 13.4104 22.1424 13.4104C22.5127 13.4104 22.813 13.1141 22.813 12.7486C22.813 12.3832 22.5127 12.0869 22.1424 12.0869Z" fill="#0D0D0D"/>
</svg>
